<svg xmlns="http://www.w3.org/2000/svg" version="1.1" xmlns:xlink="http://www.w3.org/1999/xlink"
    xmlns:svgjs="http://svgjs.dev/svgjs" viewBox="0 0 800 800">
    <defs>
        <linearGradient x1="50%" y1="0%" x2="50%" y2="100%" id="ssscribble-grad">
            <stop stop-color="hsl(206, 75%, 49%)" stop-opacity="1" offset="0%"></stop>
            <stop stop-color="hsl(331, 90%, 56%)" stop-opacity="1" offset="80%"></stop>
            <stop stop-color="hsl(200, 90%, 56%)" stop-opacity="1" offset="100%"></stop>
        </linearGradient>
    </defs>
    <g fill="none" stroke-width="1.5" stroke="url(#ssscribble-grad)" stroke-linecap="round">
        <path
            d="M860.87 594.42C1061.98 627.28 1082.44 643.47 913.74 636.94 703.94 622.66 625.3 577 718.04 505.95 900.1 450.43 1021.31 419.37 1004.12 458.08 862.49 577.57 679.46 759.24 542.35 926.79 489.92 979.61 523.47 881.75 599.38 693.68 693.92 588.14 759.4 673.41 784.72 908.74 782.13 1073.01 750.61 1000.19 707.65 761.12 656.4 646.05 610.62 803.74 577.76 1052.83 544.9 1070.75 526.52 837.18 515.79 647.31 496.77 715.59 468.52 942.69 414.17 1064.48 331.9 957.47 212.3 726.06 67.11 574.5 -59.43 602.84 -140.16 757 -130.8 898.25 -36.76 941.99 107.3 858.93 214.71 710.37 197.68 544.64 47.01 424.82 -159.13 360.54 -245.99 343.27 123.54 363.06 -91.12 327.12 -277.63 294.26 -269.06 236.28 -83.82 160.45 116.56 92.5 169.05 26.64 55.33 -10.02 -127.96 -2.7 -231.06 62.98 -190.65 178.06 -33.8 275.99 148.09 311.9 271.51 225.12 304.2 40.81 254.77 -152.31 171.23 -214.9 48.01 3.37 36.33 -81.42 105.06 -285.34 161.44 -108.2 209.66 118.72 242.52 100.89 275.38 -148.17 291.33 -299.27 296.92 -171.57 310.3 80.18 329.81 171.75 373.2 31.6 446.27 -179.64 558.87 -235.48 703.49 -95.75 837.68 126.53 934.29 263.38 944.67 253.66 864.32 129.19 721.38 -5.3 598.75 -74.16 592.55 -62.25 725.12 22.89 932.52 135.36 1070.32 263.35 1036.54 368.8 848.82 445.06 676.27 513.58 674.36 561.55 860.87 594.42Q860.87 594.42 860.87 594.42"
            opacity="0.77"></path>
        <path
            d="M826.87 348.07C1017.94 378.58 1059.01 383.46 926.52 367.84 723.39 357.96 597.36 342.97 619.57 345.36 762.79 386.08 917.59 476.78 989.07 621.07 945.68 774.13 810.25 899.11 650.79 928.48 479.78 764.73 510.72 668.05 593.34 970.78 654.82 970.49 650.57 703.3 609.83 1018.83 579.32 1046.14 540.2 842.28 488.57 636.02 430.94 633.08 351.79 819.06 249.25 996.03 144.14 1005.98 33.11 838.5 -56.96 634.4 -96.38 524.32 -70.4 563.74 25.72 690.37 145.18 828.61 244.44 890.11 256.05 861.83 152.8 761.34 -29.36 631.33 -194.94 511.72 -239.52 402.3 -130.86 326.24 60.49 275.67 181.2 235.2 133.94 203.53 -57.12 173.01 -235.45 142.5 -249.68 114.59 -98.21 97.5 102.5 90.52 207.51 111.07 161.8 167.59 7.09 234.33 -140.6 314.09 -193.03 367.58 -128.55 348.85 18.73 243.56 177.63 65.34 302.46 -101.29 356.26 -176.92 349.37 -98.64 295.03 73.67 229.23 213.81 176.85 181.53 121.28 -119.46 138.42 63.26 180.52 134.89 211.03 -95.21 247.44 -259.88 294.24 -185.39 347.61 46.37 421.85 203.41 520.93 156.3 626.19 -35.52 742.25 -185.23 843.61 -175.11 897.54 -16.52 887.54 179.6 802.71 303.39 683.8 314.05 572.68 232.89 539.98 126.87 624.18 29.59 799.25 -10.87 976.32 1.27 1044.4 51.75 956.76 122.24 767.82 189.67 628.12 262.84 648.54 317.55 826.87 348.07Q826.87 348.07 826.87 348.07"
            opacity="0.52"></path>
        <path
            d="M792.87 173.73C972.96 201.89 1030.96 228.72 935.02 261 751.09 302.2 596.23 364.39 552.76 457.2 632.94 564.67 775.77 691.87 897.78 809.96 949.19 875.71 904.15 867.03 792.46 769.98 647.13 636.31 517.39 525.04 427.79 521.34 375.27 751.24 426.24 881.48 450.08 610 461.96 596.25 454.65 774.05 426.48 984.83 398.31 1019.98 350.63 847.26 285.62 637.33 221.54 572.25 144.55 695.35 65.51 883.15 4.59 989.14 -33.29 928.9 -28.43 757.09 17.75 573.78 107.05 481.1 215.47 498.95 290.23 601.98 301.88 719.92 221.14 799.7 69.81 830.1 -98.27 800.26 -199.1 735.38 -176.28 645.01 -37.45 556.56 135.6 484.67 220.67 412.67 156.96 361.88 -23.12 333.71 -192.23 305.54 -225.88 301.32 -109.6 320.19 148.34 357.56 67.93 425.55 -117.82 343.49 -150.61 220.31 -87.49 61.94 35.22 -78.01 182.61 -132.81 305.88 -73.55 384.59 80.41 419.41 222.91 416.38 257.92 396.23 131.32 345.83 -146.69 311.82 120.44 343.82 168.89 371.99 -41.86 419.31 -214 484.26 -189.43 549.16 4.39 628.89 197.46 713.85 242.45 782.82 120.82 832.23 -55.46 840.83 -155.28 805.53 -122.27 722.7 22.38 612.22 192.98 526.42 326.95 496.69 376.07 558.82 353.73 700.4 279.05 872.65 198.24 991.62 139.57 991.09 95.58 866.67 84.63 689.81 96.54 584.4 117.39 623.76 145.56 792.87 173.73Q792.87 173.73 792.87 173.73"
            opacity="0.16"></path>
        <path
            d="M758.87 313.19C927.09 339.01 998.17 384.92 937.35 450.24 782.26 516.4 618.15 600.13 523.57 691.15 532.7 764.47 627.5 815.17 751.83 817.95 860.55 770.02 904.5 670.96 878.17 551.01 793.48 474.17 678.54 477.63 563.99 587.94 457.29 761.65 379.18 920.57 328.26 966.42 296.2 868.49 278.8 685.39 265.22 551.46 256.73 580.76 241.76 759.67 215.94 950.83 190.12 992.23 154.67 851.01 114.48 649.05 79.36 536.2 49.79 587.04 37.1 745.01 43.28 902.71 78.87 950.3 145.78 870.86 220.53 708 298.4 546.44 349.26 448.1 341.74 431.98 267.19 485.4 131.58 566.89 -19.63 658.63 -137.59 720.94 -165.64 746.84 -89.99 748.27 59.42 724.43 204.55 690.37 255.4 649.02 179.09 612.15 10.87 586.33 -148.01 560.5 -197.45 546.96 -116 539.62 47.95 524.98 204.79 501.86 281.33 455.7 251.85 385.07 144.32 280.25 18.88 148.72 -79.98 27.43 -108.08 -63.07 -66.13 -80.82 30.9 -16.34 151.32 114.59 265.15 250.57 366.07 303.16 435.88 232.45 478.51 55.84 501.69 -121.06 512.27 -186.64 521.48 -83.8 525.92 108.19 538.92 244.21 564.74 202.88 590.56 11.74 627.97 -161.96 672.23 -181.35 711.72 -37.48 748.1 160.31 769.67 277.2 771.79 250.3 744.5 114.54 683.37 -32.28 609.33 -115.73 525.98 -88.58 462.78 22.09 454.68 175.88 513.39 312 639.14 399.73 791.46 436.75 922.15 428.57 970.55 399.99 912.93 353.72 770.79 316.96 616.8 299.49 545.31 282.87 599.98 287.37 758.87 313.19Q758.87 313.19 758.87 313.19"
            opacity="0.28"></path>
        <path
            d="M724.94 573.05C880.44 596.52 960.63 631.69 931.85 673.11 811.72 708.79 656.51 738.87 531.62 750.13 477.68 739.46 506.34 695.75 591.63 618.16 705.01 534.92 799 455.39 848.83 416.2 851.42 447.84 806.5 554.14 732.96 712.66 638.85 857.89 545.86 931.4 465.5 886.3 389.94 747.58 331.58 586.31 288.19 506.71 248.41 570.89 217.79 745.41 194.32 916.84 170.85 962.84 155.63 852.43 151.15 668.3 150.27 525.32 165.93 507.06 200.82 606.77 240.5 764.1 294.83 882.76 352.77 908.2 390.13 835.83 401.35 700.22 368 557.75 287.4 441.39 165.58 382.63 27.76 376.05 -81.96 412.58 -131.67 466.62 -94.93 516.41 12.74 567.81 154.59 598.64 265.67 608.33 285.39 614.09 200.44 603.98 44.94 580.51 -102.82 557.04 -164.28 521.31 -115.58 471.28 16.98 417.33 171.7 343.8 284.8 251.73 320.54 161.26 275.1 68.56 179.97 -4.13 65.58 -33.73 -21.07 -8.67 -58.91 76.91 -47.23 188.62 9.86 296.41 91.64 344.34 190.46 294.46 284.11 154.75 362.62 -19.78 434.31 -136.69 488.45 -131.8 528.46 2.11 564.54 177.19 593.1 282.84 616.57 236.84 648.68 -19.46 664.05 16.5 627.33 259.74 589.5 322.04 534.51 269.58 471.86 148.79 426.25 14.71 402.84 -63.75 421.9 -64.62 490.49 5.32 604.97 118.54 743.8 237.96 863.38 351.73 929.89 434.1 911.38 485.44 815.51 514.86 674.15 527.47 550.62 536.06 510.95 538.9 577.13 549.57 724.87 573.04Q724.94 573.05 724.94 573.05"
            opacity="0.25"></path>
        <path
            d="M690.16 592.77C832.35 613.89 918.17 624.43 917.52 622.03 835.19 615.97 703.59 591.48 570.98 547.23 473.7 500.68 438.08 443.31 461.93 390.34 534.35 366.93 624.79 380.92 706.59 447.62 771.76 557.69 801.51 695.92 798.07 822.65 768.09 889.77 718.76 871.51 662.46 765.31 597.81 622.2 538.56 503 490.27 476.33 441.51 565.81 405.71 730.98 384.59 882.73 363.47 931.64 358.01 850.35 366.93 691.58 375.39 537.02 396.21 463.41 424.25 493.5 443.94 606.88 458.48 741.1 455.9 837.81 426.78 869.58 366.7 824.77 273.84 728.61 164.35 603.55 48.87 486.72 -45.54 398.03 -91.38 337.65 -74.71 310.62 7.07 305.01 183.98 324.24 265.4 347.29 78.16 324.21 -57.37 303.09 -126.5 265.76 -106.47 215.71 -8.91 168.45 128.07 115.28 255.48 66.8 339.14 35.8 357.94 28.02 319.3 55.83 236.82 111.94 143.56 198.45 65.29 295.82 8.81 364.31 -9.91 384.09 4.29 330.36 44.77 211.66 101.99 58.5 163.41 -70.37 231.67 -115.97 292.55 -54.43 341.33 91.96 390.06 242.59 425.63 319.63 446.76 270.78 470.72 38.6 444.5 -22.83 401.62 201.37 376.81 323.07 354.39 360.29 346.47 315.18 364.81 210.45 413.88 97.27 498.04 14.88 604 -24.13 722.31 -7.79 826.78 48.16 887.42 133.69 887.57 225.85 819.39 309.01 707.46 389.87 582.5 452.79 493.08 498.69 481.21 540.93 554.62 571.64 690.16 592.77Q690.16 592.77 690.16 592.77"
            opacity="0.38"></path>
        <path
            d="M656.93 345.11C828.28 365.36 796.95 338.67 627.81 310.58 513.86 303.98 433.81 310.72 398.61 342.45 409.03 401.37 454.31 491.08 516.8 604.38 590.31 715.23 653.52 807.77 698.09 852.46 729.13 833.52 738.77 750.36 731.98 624.87 714.77 508.45 689.79 441.41 663.27 460.51 634.07 565.06 608.68 716.65 589.91 848.89 571.13 898.96 559.85 844.12 553.63 715.52 544.74 566.57 535.56 458.32 520.23 424.81 494.47 470.85 453.91 569.73 393.93 680.12 320.42 775.21 230.26 821.97 132.13 816.32 45.03 764.94 -22.5 683.21 -52.47 592.2 -36.83 495.98 26.38 414.06 126.56 350.95 232.52 297.85 320.66 260.62 359.86 233.93 331.5 211.2 240.86 191.86 112.93 173.08 -46.86 145.64 26.88 117.11 201.88 139.2 309.63 169.76 378.24 220.76 400.15 288.04 376.69 350.11 321.8 404.88 254.15 431.65 179.71 412.69 119.45 343.67 80.15 229.03 55.27 41.22 105.89 -7.9 150.43 182.57 182.57 303.93 209.41 354.96 228.19 304.89 246.98 172.65 256.8 24.86 260.08 -72.43 265.86 -84.29 270.2 -6.56 279.09 123.61 298.42 262.86 331.6 362.87 384.29 401.36 452.52 376.22 539.74 305.95 638.79 219.71 731.05 131.02 808.22 68.26 851.24 38.29 848.89 35.49 797.15 59.69 703.17 98.82 595.89 150.58 498.65 202.48 444.4 246.66 456.41 292.61 533.98 326.32 656.86 345.1Q656.93 345.11 656.93 345.11"
            opacity="0.86"></path>
        <path
            d="M622.86 173.5C823.98 206.36 843.14 240.79 689.22 308.59 483.48 412.39 367.02 579.78 366.94 752.08 454.65 813.53 549.82 706.12 602.09 490.38 639.04 405.2 633.86 565.8 601 814.88 568.14 832.71 510.71 602.26 416.81 409.14 307.59 428.86 161.14 600.18 30.36 737.81 -12.62 773.19 68.97 692.43 250.62 582.94 380.46 455.78 347.98 369.34 146.86 336.48 -39.64 303.62 -30.44 327.45 140.06 397.66 340.67 450.2 436.76 479.67 417.32 401.23 316.94 220.53 220.48 14.35 172.42 -29.44 143.24 139.58 153.87 356.71 186.73 338.88 219.59 89.8 271.58 -57.47 357.7 51.79 462.71 291.61 610.45 433.87 753.9 415.49 816.41 286.26 755.18 170.16 578.65 123.31 432.23 112.46 436.35 140.64 622.86 173.5Q622.86 173.5 622.86 173.5 "
            opacity="0.46"></path>
        <path
            d="M588.94 315.96C769 344.13 824.53 417.08 738.77 527.73 569.45 631.4 412.52 733 325.53 763.43 325.29 615.07 427.17 480.87 405.77 780.84 377.6 815.99 310.41 645.91 216.66 443.02 133.63 350.71 57.73 411.15 37.03 533.49 87.11 660.66 214.16 714.5 362.83 706.4 427.95 665.52 361 616.19 180.94 588.02 11.8 559.85 -20.09 555.52 85.03 547.59 260.52 506.88 408.69 409.08 480.58 245 479.71 85.74 436.31 -4.57 396.88 67.05 349.57 249.28 336.06 407.97 364.23 372.89 392.38 162.13 459.54 -4.89 555.66 10.34 643.91 179.46 731.28 369.92 769.08 474.93 734.13 481.41 615.85 423.77 461 368.92 376.49 307.08 419.77 287.79 588.87 315.95Q588.94 315.96 588.94 315.96"
            opacity="0.55"></path>
        <path
            d="M554.94 574.96C710.44 598.43 787.49 643.43 762.91 688.82 657.78 711.79 520.22 694.22 401.85 612.2 310.31 501.12 262.14 380.4 240.69 329.65 235.45 401.73 228.04 575.42 204.57 746.84 181.1 792.84 143.78 684.06 108.35 511.01 89.12 362.64 100.66 309.04 161.44 337.17 249.04 423.12 361.71 507.55 449.63 556.95 457 597.22 370.44 602.16 214.94 578.69 67.17 555.22 8.34 505.55 51.45 424.61 169.5 334.54 309.64 213.48 422.75 96.76 503.46 37.86 540.44 66.55 553.82 197.69 551.39 353.54 554.94 452.82 578.41 406.89 622.46 153.37 713.29 157.11 663.19 371.77 580.85 484.57 465.61 538.77 364.75 556.47 338.82 551.76 407.14 551.48 554.87 574.95Q554.94 574.96 554.94 574.96"
            opacity="0.10"></path>
        <!-- <path
            d="M520.59 591.24C648.56 610.02 732.17 608.84 752.28 582.26 714.97 547.32 634.55 479.89 542.22 392.69 443.17 326.61 362.09 292.49 305.57 326.41 255.85 430.38 222.95 580.53 204.17 712.79 185.39 762.91 182.51 708.58 199.69 589.66 223.67 448.05 275.44 336.73 349.89 276.59 417.6 261.26 478.1 277.69 501.65 298.35 467.78 328.99 376.56 340.25 248.59 321.47 125.76 302.69 55.12 255.66 50.28 192.48 102.22 139.28 192.17 93.54 288.3 84.26 386.69 119.79 464.02 211.19 516.44 339.03 561.06 444.19 590.78 490.91 609.56 440.79 628.34 308.53 634.4 165.99 622.32 75.78 602.44 55.63 554.42 109.67 480.63 200.36 409.11 312.17 339.08 408.91 300.9 476.39 319.51 535.51 397.76 572.46 520.59 591.24Q520.59 591.24 520.59 591.24"
            opacity="0.82"></path>
        <path
            d="M486.94 342.3C667 370.47 717.4 310.95 657.3 249.98 537.28 288.85 432.8 468.07 404.64 678.84 376.47 713.99 429.95 549.08 513.05 378.95 536.23 250.69 463 201.36 282.94 173.19 113.79 145.02 85.79 143.35 161.71 234.7 291.39 367.91 397.26 509.99 425.43 474.84 453.59 264.07 398.72 107.68 305.96 105.73 266.96 203.62 317.79 314.13 486.94 342.3Q486.94 342.3 486.94 342.3"
            opacity="0.08"></path>
        <path
            d="M452.87 173.32C671.02 210.88 638.1 359.64 600.55 644.83 562.99 639.62 535.02 376.98 316.87 339.42 117.29 301.87 177.8 503.62 215.36 508.83 252.91 223.64 253.29 135.77 452.87 173.32Q452.87 173.32 452.87 173.32"
            opacity="0.91"></path> -->
    </g>
</svg>